<?xml version="1.0" encoding="utf-8"?>
<!-- Designed by Vexels.com - 2016 All Rights Reserved - https://vexels.com/terms-and-conditions/  -->

<svg version="1.1" id="Layer_1" xmlns="http://www.w3.org/2000/svg" xmlns:xlink="http://www.w3.org/1999/xlink" x="0px" y="0px"
	 width="1200px" height="1200px" viewBox="0 0 1200 1200" enable-background="new 0 0 1200 1200" xml:space="preserve">
<path fill="#373636" d="M1048.842,170.816c-6.195,0-11.917,1.907-16.67,5.156c-1.482-0.22-2.971-0.45-4.507-0.45
	c-6.744,0-12.884,2.339-17.858,6.137c-5.523,2.624-11.56,8.448-25.569,10.66c-22.715,3.581-32.868,2.391-83.092,0
	c-50.218-2.398-65.757,7.766-89.672,13.144c-23.922,5.392-60.385,7.18-85.501,3.002c-25.095-4.192-43.034,5.972-74.133,4.781
	c-31.084-1.201-22.722-15.552-23.311-24.519c13.748-19.13,15.545-46.033,15.545-46.033s7.176-7.766,7.766-17.329
	c0.597-9.57-2.984-9.564-2.984-9.564c4.178-26.909-10.167-66.96-55.603-65.776c-57.991,1.797-44.236,65.173-44.236,65.173
	s-6.573,10.76-7.176,18.53c-0.604,7.776,11.361,12.558,11.361,12.558s4.782,20.324,13.151,39.457
	c2.387,17.336-1.798,28.096-12.554,30.487c-10.771,2.391-23.319,2.391-34.082-2.984c-10.75-5.392-42.438-8.373-77.714-8.373
	s-67.554-6.582-91.469-22.117c-23.908-15.549-83.697-9.57-121.36-7.18c-37.67,2.391-32.58-10.197-35.866-11.357
	c-19.14-6.771-31.208,0.614-37.546,7.059c-1.503-0.244-3.032-0.463-4.604-0.463c-16.348,0-29.596,13.254-29.596,29.592
	c0,16.342,13.248,29.592,29.596,29.592c13.838,0,25.37-9.55,28.601-22.392c6.483-1.928,14.297-4.97,18.921-9.289
	c8.973-8.37,16.746-6.575,43.652,2.988c26.893,9.557,66.36,22.118,89.672,24.509c23.318,2.384,40.057,3.585,55.603,13.748
	c15.539,10.174,66.353,17.926,82.503,20.317c16.135,2.391,34.665,17.943,31.688,32.889c-2.998,14.948,1.784,31.677,4.782,38.853
	c2.977,7.187,5.968,40.061,3.581,53.809c-2.387,13.748,4.782,40.651,5.379,60.385c0.596,19.727-7.773,27.49-16.739,47.22
	c-23.312,43.045-28.094,125.548-28.094,155.441c0,29.891,0,147.069-1.804,172.778c-1.791,25.709-11.951,41.244-20.321,67.55
	c-8.377,26.302-8.377,127.939-8.377,140.503c0,12.554-5.982,17.933-11.95,41.245c-5.975,23.318-17.336,33.482-25.116,52.608
	c-7.766,19.134,2.394,23.915,16.746,26.307c14.338,2.391,33.478-3.585,36.47-11.954c2.984-8.37,5.371-23.318,13.151-26.313
	c7.773-2.984,12.554-14.342,12.554-16.139c0-1.78-3.595-30.487-10.166-52.012c-6.566-21.518,7.779-62.172,14.948-74.723
	c7.169-12.558,23.915-46.04,25.706-71.145c1.797-25.099,9.556-42.452,12.554-50.218c2.984-7.776,13.151-31.094,17.336-55.596
	c4.185-24.519,1.797-44.843,10.764-70.552c8.967-25.709,14.345-54.999,20.32-83.697c5.982-28.7,20.334-25.709,22.721-25.709
	c2.395,0,9.564-4.185,11.958,14.948c2.394,19.126,9.57,40.054,15.539,52.012c5.982,11.961,14.345,41.848,20.931,79.512
	c6.579,37.663,15.539,63.958,22.715,75.92c7.183,11.968,11.361,23.318,12.561,38.86c1.791,59.188,40.647,136.902,44.832,156.639
	c4.185,19.727-2.387,46.63-9.556,59.781c-7.176,13.151,7.765,20.927,11.95,24.508c4.185,3.585,14.352,32.285,40.655,31.088
	c26.309-1.187,23.311-34.668,16.135-44.843c-7.176-10.164-22.117-39.45-22.715-44.232c-0.596-4.775-8.369-23.318-8.369-23.318
	s-4.788-14.939,1.798-80.709c6.572-65.76-28.1-142.88-34.673-162.608c-6.579-19.737-3.595-84.903-3.005-159.637
	c0.61-74.723-32.868-144.671-44.229-162.007c-11.361-17.333-6.579-44.239-1.201-60.378c5.385-16.139,9.57-56.2,17.343-76.531
	c7.78-20.323-1.791-35.865,1.194-46.63c11.367-23.311,61.578-21.527,83.696-24.508c22.118-2.988,47.227-13.755,87.291-15.546
	c40.051-1.787,93.26-25.706,108.202-28.701c6.386-1.265,18.776-0.476,30.871,0.858c4.315,11,14.97,18.811,27.497,18.811
	c6.188,0,11.923-1.91,16.67-5.156c1.475,0.227,2.964,0.453,4.507,0.453c16.349,0,29.596-13.251,29.596-29.592
	C1078.438,184.07,1065.19,170.816,1048.842,170.816z"/>
</svg>
